<svg xmlns="http://www.w3.org/2000/svg" width="595" height="784" preserveAspectRatio="none" style="display:block" viewBox="728 627 595 784"><path fill="#f7f9f1" d="M0 0h2048v2048H0z"/><path fill="#04707e" d="M1024.64 851.874c1.19 1.309 5.85 18.696 6.73 21.981 32.24 119.945 137.1 216.195 263.61 224.435a276.6 276.6 0 0 1-77.78 196.15 266.83 266.83 0 0 1-190.24 80.57c-156.649.66-271.141-122.21-271.942-276.7 42.284-2.42 90.994-18.68 127.129-41.13 78.601-48.84 120.903-117.6 142.493-205.306"/><path fill="#04707e" d="M1024.39 661.627c2.77 2.473 14.15 22.741 17.37 27.738 57.84 89.691 146.38 145.464 253.32 156.885v51.204c-2.02-.035-4.05-.091-6.07-.168-27.8-1.075-56.54-7.094-83.04-15.266-75.6-23.317-127.7-62.219-180.7-119.365-13.79 12.202-25.384 27.395-41.032 40.81-64.077 54.935-143.701 91.354-228.845 93.673-.659-16.165-.339-34.557-.422-50.892 27.064-3.184 48.112-6.703 74.323-15.376a341.33 341.33 0 0 0 195.096-169.243"/><path fill="#dd7054" d="M1079.55 869.978c76.22 45.234 124.88 68.339 215.31 74.001l.13 107.301a238.5 238.5 0 0 1-127.32-51.329c-34.42-27.618-60.22-61.681-78.23-101.823-3.26-7.284-9.03-20.283-9.89-28.15M970.321 868.86l.946.279c.577 4.809-6.637 20.69-8.886 25.843-30.099 68.938-85.903 122.438-157.447 146.668-15.051 5.1-31.185 7.46-47.094 9.95l-1.825-1.12c-.93-8.15-.24-29.18-.194-38.23l-.016-67.592a412.3 412.3 0 0 0 214.516-75.798"/></svg>